<?xml version="1.0" encoding="UTF-8"?>
<svg xmlns="http://www.w3.org/2000/svg" xmlns:xlink="http://www.w3.org/1999/xlink" width="22px" height="16px" viewBox="0 0 21 16" version="1.1">
<g id="surface1">
<path style=" stroke:none;fill-rule:nonzero;fill:rgb(95.686275%,70.588237%,1.568628%);fill-opacity:1;" d="M 15.59375 0.113281 C 15.542969 0.175781 15.296875 0.480469 15.042969 0.785156 C 13.253906 2.976562 11.472656 5.21875 9.164062 8.179688 C 7.9375 9.746094 7.519531 10.28125 7.074219 10.835938 C 6.351562 11.734375 5.988281 12.125 5.867188 12.125 C 5.8125 12.125 5.699219 12.003906 5.546875 11.792969 C 5.277344 11.425781 4.9375 10.851562 4.109375 9.355469 C 3.308594 7.910156 3.035156 7.445312 2.875 7.257812 L 2.820312 7.191406 L 2.667969 7.246094 C 2.144531 7.441406 1.53125 7.839844 0.925781 8.375 C 0.621094 8.648438 0.0078125 9.289062 0.0078125 9.335938 C 0.0078125 9.402344 0.953125 10.722656 1.976562 12.082031 C 3.222656 13.742188 4.246094 15.023438 4.714844 15.511719 C 4.917969 15.722656 5.167969 15.867188 5.484375 15.957031 C 5.65625 16.003906 6.054688 16.007812 6.257812 15.964844 C 6.425781 15.925781 6.78125 15.804688 6.933594 15.734375 C 7.0625 15.675781 7.089844 15.640625 7.554688 15.027344 C 8.371094 13.949219 8.769531 13.441406 9.359375 12.707031 C 12.390625 8.949219 15.867188 5.390625 19.601562 2.222656 C 19.945312 1.929688 20.785156 1.230469 20.914062 1.132812 C 20.957031 1.101562 20.992188 1.070312 20.992188 1.0625 C 20.992188 1.054688 20.96875 1.050781 20.9375 1.050781 C 20.847656 1.050781 20.375 1.015625 20.089844 0.988281 C 18.398438 0.832031 16.910156 0.5 15.710938 0.0078125 C 15.691406 0.00390625 15.65625 0.0351562 15.59375 0.113281 Z M 15.59375 0.113281 "/>
</g>
</svg>
