<svg version="1.1" xmlns="http://www.w3.org/2000/svg" xmlns:xlink="http://www.w3.org/1999/xlink" width="32" height="32" viewBox="0,0,256,256"><g fill="#f4b404" fill-rule="nonzero" stroke="none" stroke-width="1" stroke-linecap="butt" stroke-linejoin="miter" stroke-miterlimit="10" stroke-dasharray="" stroke-dashoffset="0" font-family="none" font-weight="none" font-size="none" text-anchor="none" style="mix-blend-mode: normal"><g transform="translate(-0.00002,-0.00022) scale(8,8)"><path d="M21.3021,19.2954h-1.0533l-0.3734,-0.36c1.6,-1.8666 2.4267,-4.4133 1.9734,-7.12c-0.6267,-3.70664 -3.7201,-6.66664 -7.4534,-7.11997c-5.63998,-0.69333 -10.38665,4.05333 -9.69332,9.69337c0.45334,3.7333 3.41334,6.8266 7.12002,7.4533c2.7067,0.4533 5.2533,-0.3733 7.12,-1.9733l0.36,0.3733v1.0533l5.6667,5.6667c0.5466,0.5467 1.44,0.5467 1.9866,0c0.5467,-0.5467 0.5467,-1.44 0,-1.9867zM13.3021,19.2954c-3.32002,0 -6.00002,-2.68 -6.00002,-6c0,-3.31997 2.68,-5.99997 6.00002,-5.99997c3.32,0 6,2.68 6,5.99997c0,3.32 -2.68,6 -6,6z"></path></g></g></svg>