<svg version="1.1" xmlns="http://www.w3.org/2000/svg" xmlns:xlink="http://www.w3.org/1999/xlink" width="20" height="20" viewBox="0,0,256,256"><g fill="#f4b404" fill-rule="nonzero" stroke="none" stroke-width="1" stroke-linecap="butt" stroke-linejoin="miter" stroke-miterlimit="10" stroke-dasharray="" stroke-dashoffset="0" font-family="none" font-weight="none" font-size="none" text-anchor="none" style="mix-blend-mode: normal"><g transform="translate(-0.00026,-0.00013) scale(12.8,12.8)"><path d="M4.34062,10.8292h9.30838l-4.06671,4.0666c-0.325,0.325 -0.325,0.8584 0,1.1834c0.325,0.325 0.85001,0.325 1.17501,0l5.4917,-5.4917c0.325,-0.325 0.325,-0.85001 0,-1.17501l-5.4917,-5.49167c-0.325,-0.325 -0.85001,-0.325 -1.17501,0c-0.325,0.325 -0.325,0.85 0,1.175l4.06671,4.06667h-9.30838c-0.45833,0 -0.83333,0.375 -0.83333,0.83333c0,0.45838 0.375,0.83338 0.83333,0.83338z"></path></g></g></svg>