<svg version="1.1" xmlns="http://www.w3.org/2000/svg" xmlns:xlink="http://www.w3.org/1999/xlink" width="20" height="20" viewBox="0,0,256,256"><g fill="#f4b404" fill-rule="nonzero" stroke="none" stroke-width="1" stroke-linecap="butt" stroke-linejoin="miter" stroke-miterlimit="10" stroke-dasharray="" stroke-dashoffset="0" font-family="none" font-weight="none" font-size="none" text-anchor="none" style="mix-blend-mode: normal"><g transform="translate(0.00026,-0.00026) scale(12.8,12.8)"><path d="M15.6593,9.17084h-9.30829l4.06669,-4.06666c0.325,-0.325 0.325,-0.85834 0,-1.18334c-0.325,-0.325 -0.85002,-0.325 -1.17502,0l-5.49167,5.49167c-0.325,0.325 -0.325,0.84999 0,1.17499l5.49167,5.4917c0.325,0.325 0.85002,0.325 1.17502,0c0.325,-0.325 0.325,-0.85 0,-1.175l-4.06669,-4.0667h9.30829c0.4584,0 0.8334,-0.375 0.8334,-0.8333c0,-0.45836 -0.375,-0.83336 -0.8334,-0.83336z"></path></g></g></svg>